<?xml version="1.0" encoding="UTF-8" standalone="no"?>
<!DOCTYPE svg PUBLIC "-//W3C//DTD SVG 1.1//EN" "http://www.w3.org/Graphics/SVG/1.1/DTD/svg11.dtd">
<svg width="100%" height="100%" viewBox="0 0 56 58" version="1.1" xmlns="http://www.w3.org/2000/svg" xmlns:xlink="http://www.w3.org/1999/xlink" xml:space="preserve" xmlns:serif="http://www.serif.com/" style="fill-rule:evenodd;clip-rule:evenodd;stroke-linejoin:round;stroke-miterlimit:2;">
    <rect id="Artboard1" x="0" y="0" width="55.778" height="57.603" style="fill:none;"/>
    <clipPath id="_clip1">
        <rect id="Artboard11" serif:id="Artboard1" x="0" y="0" width="55.778" height="57.603"/>
    </clipPath>
    <g clip-path="url(#_clip1)">
        <g transform="matrix(0.638858,0,0,0.638858,-3.36785,-2.60903)">
            <path d="M43.362,47.888L5.778,7.157C5.453,6.823 5.272,6.375 5.272,5.909C5.272,5.415 5.476,4.942 5.837,4.604C6.579,3.891 7.678,3.921 8.39,4.633L47.311,44.177C48.439,45.453 48.32,47.146 47.193,48.155C46.093,49.135 44.372,49.016 43.362,47.888Z" style="fill:rgb(48,187,250);fill-rule:nonzero;"/>
            <path d="M16.376,34.915C15.308,33.757 15.366,32.036 16.524,30.967C17.653,29.958 19.374,30.047 20.443,31.145L34.396,46.315C40.42,52.84 44.36,61.019 45.708,69.797C47.311,80.574 57.345,87.967 68.122,86.363C78.868,84.76 86.35,74.666 84.657,63.89C83.44,55.726 77.206,49.165 69.071,47.503C60.358,45.785 52.366,41.468 46.153,35.123L21.037,9.651C19.968,8.582 20.028,6.831 21.097,5.762C22.225,4.663 23.947,4.693 24.986,5.792L46.272,27.375C52.655,33.906 60.998,38.3 70.022,39.903C81.778,42.04 90.803,51.48 92.347,63.326C94.306,78.288 83.708,92.033 68.745,94.022C53.724,95.952 40.037,85.382 38.018,70.42C36.86,61.306 32.852,52.786 26.677,46.046L16.376,34.915Z" style="fill:rgb(48,187,250);fill-rule:nonzero;"/>
            <path d="M79.373,66.858C79.373,58.991 73.02,52.668 65.183,52.668C57.346,52.668 50.992,58.991 50.992,66.858C50.992,74.695 57.346,81.078 65.183,81.078C73.02,81.078 79.373,74.695 79.373,66.858Z" style="fill:rgb(48,187,250);fill-rule:nonzero;"/>
        </g>
    </g>
</svg>
