<?xml version="1.0" encoding="UTF-8" standalone="no"?>
<!DOCTYPE svg PUBLIC "-//W3C//DTD SVG 1.1//EN" "http://www.w3.org/Graphics/SVG/1.1/DTD/svg11.dtd">
<svg width="100%" height="100%" viewBox="0 0 274 263" version="1.1" xmlns="http://www.w3.org/2000/svg" xmlns:xlink="http://www.w3.org/1999/xlink" xml:space="preserve" xmlns:serif="http://www.serif.com/" style="fill-rule:evenodd;clip-rule:evenodd;stroke-linejoin:round;stroke-miterlimit:2;">
    <g id="Artboard1" transform="matrix(1,0,0,1,-24.4931,-30.0665)">
        <rect x="24.493" y="30.066" width="273.507" height="262.933" style="fill:none;"/>
        <clipPath id="_clip1">
            <rect x="24.493" y="30.066" width="273.507" height="262.933"/>
        </clipPath>
        <g clip-path="url(#_clip1)">
            <g transform="matrix(3.77458,0,0,3.77458,98.4935,93.066)">
                <g>
                    <g>
                        <path d="M0,26.492C0.002,11.859 11.861,0.002 26.492,0C41.125,0.002 52.982,11.859 52.986,26.492C52.982,41.125 41.125,52.982 26.492,52.986C11.861,52.982 0.002,41.125 0,26.492ZM6,26.492C6.021,37.808 15.176,46.966 26.493,46.984C37.809,46.965 46.967,37.808 46.985,26.492C46.966,15.175 37.809,6.02 26.492,6C15.175,6.02 6.02,15.175 6,26.492Z" style="fill:rgb(59,51,166);fill-rule:nonzero;"/>
                    </g>
                </g>
            </g>
            <g transform="matrix(3.40333,0,0,3.40333,28.6036,-3218.03)">
                <g>
                    <path d="M50,979.362C37.298,979.362 27,989.66 27,1002.36C27,1015.07 37.298,1025.36 50,1025.36C62.703,1025.36 73,1015.07 73,1002.36C73,989.66 62.703,979.362 50,979.362L50,979.362Z" style="fill:rgb(22,14,92);fill-rule:nonzero;"/>
                </g>
            </g>
            <g transform="matrix(0.638858,0,0,0.638858,79.9462,27.5239)">
                <path d="M43.362,47.888L5.778,7.157C5.453,6.823 5.272,6.375 5.272,5.909C5.272,5.415 5.476,4.942 5.837,4.604C6.579,3.891 7.678,3.921 8.39,4.633L47.311,44.177C48.439,45.453 48.32,47.146 47.193,48.155C46.093,49.135 44.372,49.016 43.362,47.888Z" style="fill:rgb(153,218,69);fill-rule:nonzero;"/>
                <path d="M16.376,34.915C15.308,33.757 15.366,32.036 16.524,30.967C17.653,29.958 19.374,30.047 20.443,31.145L34.396,46.315C40.42,52.84 44.36,61.019 45.708,69.797C47.311,80.574 57.345,87.967 68.122,86.363C78.868,84.76 86.35,74.666 84.657,63.89C83.44,55.726 77.206,49.165 69.071,47.503C60.358,45.785 52.366,41.468 46.153,35.123L21.037,9.651C19.968,8.582 20.028,6.831 21.097,5.762C22.225,4.663 23.947,4.693 24.986,5.792L46.272,27.375C52.655,33.906 60.998,38.3 70.022,39.903C81.778,42.04 90.803,51.48 92.347,63.326C94.306,78.288 83.708,92.033 68.745,94.022C53.724,95.952 40.037,85.382 38.018,70.42C36.86,61.306 32.852,52.786 26.677,46.046L16.376,34.915Z" style="fill:rgb(153,218,69);fill-rule:nonzero;"/>
                <path d="M79.373,66.858C79.373,58.991 73.02,52.668 65.183,52.668C57.346,52.668 50.992,58.991 50.992,66.858C50.992,74.695 57.346,81.078 65.183,81.078C73.02,81.078 79.373,74.695 79.373,66.858Z" style="fill:rgb(153,218,69);fill-rule:nonzero;"/>
            </g>
            <g transform="matrix(0.638858,0,0,0.638858,21.6184,72.6053)">
                <path d="M43.362,47.888L5.778,7.157C5.453,6.823 5.272,6.375 5.272,5.909C5.272,5.415 5.476,4.942 5.837,4.604C6.579,3.891 7.678,3.921 8.39,4.633L47.311,44.177C48.439,45.453 48.32,47.146 47.193,48.155C46.093,49.135 44.372,49.016 43.362,47.888Z" style="fill:rgb(246,31,127);fill-rule:nonzero;"/>
                <path d="M16.376,34.915C15.308,33.757 15.366,32.036 16.524,30.967C17.653,29.958 19.374,30.047 20.443,31.145L34.396,46.315C40.42,52.84 44.36,61.019 45.708,69.797C47.311,80.574 57.345,87.967 68.122,86.363C78.868,84.76 86.35,74.666 84.657,63.89C83.44,55.726 77.206,49.165 69.071,47.503C60.358,45.785 52.366,41.468 46.153,35.123L21.037,9.651C19.968,8.582 20.028,6.831 21.097,5.762C22.225,4.663 23.947,4.693 24.986,5.792L46.272,27.375C52.655,33.906 60.998,38.3 70.022,39.903C81.778,42.04 90.803,51.48 92.347,63.326C94.306,78.288 83.708,92.033 68.745,94.022C53.724,95.952 40.037,85.382 38.018,70.42C36.86,61.306 32.852,52.786 26.677,46.046L16.376,34.915Z" style="fill:rgb(246,31,127);fill-rule:nonzero;"/>
                <path d="M79.373,66.858C79.373,58.991 73.02,52.668 65.183,52.668C57.346,52.668 50.992,58.991 50.992,66.858C50.992,74.695 57.346,81.078 65.183,81.078C73.02,81.078 79.373,74.695 79.373,66.858Z" style="fill:rgb(246,31,127);fill-rule:nonzero;"/>
            </g>
            <g transform="matrix(1,0,0,1,-65.6849,-51.3325)">
                <path d="M253.825,193.399C263.531,193.399 271.473,201.34 271.473,211.046C271.473,220.752 263.531,228.693 253.825,228.693C244.12,228.693 236.178,220.752 236.178,211.046C236.178,201.34 244.12,193.399 253.825,193.399Z" style="fill:rgb(10,9,58);fill-rule:nonzero;"/>
            </g>
            <g transform="matrix(1,0,0,1,-65.6849,-51.3325)">
                <path d="M235.208,266.399C241.274,266.399 246.237,271.362 246.237,277.428C246.237,283.494 241.274,288.457 235.208,288.457C229.142,288.457 224.178,283.494 224.178,277.428C224.178,271.362 229.142,266.399 235.208,266.399Z" style="fill:rgb(10,9,58);fill-rule:nonzero;"/>
            </g>
            <g transform="matrix(1,0,0,1,-65.6849,-51.3325)">
                <path d="M280.002,248.399C284.855,248.399 288.825,252.369 288.825,257.222C288.825,262.075 284.855,266.046 280.002,266.046C275.149,266.046 271.178,262.075 271.178,257.222C271.178,252.369 275.149,248.399 280.002,248.399Z" style="fill:rgb(10,9,58);fill-rule:nonzero;"/>
            </g>
            <g transform="matrix(-0.268544,0.000532,-0.000532,-0.268544,277.494,270.066)">
                <g>
                    <path d="M266,571C117,560 0,436 0,285C0,136 114,13 260,0C175,57 117,162 117,284C117,407 177,515 266,571Z" style="fill:rgb(10,9,58);fill-rule:nonzero;"/>
                </g>
            </g>
            <g transform="matrix(0.638858,0,0,0.638858,82.1758,85.9665)">
                <path d="M43.362,47.888L5.778,7.157C5.453,6.823 5.272,6.375 5.272,5.909C5.272,5.415 5.476,4.942 5.837,4.604C6.579,3.891 7.678,3.921 8.39,4.633L47.311,44.177C48.439,45.453 48.32,47.146 47.193,48.155C46.093,49.135 44.372,49.016 43.362,47.888Z" style="fill:rgb(48,187,250);fill-rule:nonzero;"/>
                <path d="M16.376,34.915C15.308,33.757 15.366,32.036 16.524,30.967C17.653,29.958 19.374,30.047 20.443,31.145L34.396,46.315C40.42,52.84 44.36,61.019 45.708,69.797C47.311,80.574 57.345,87.967 68.122,86.363C78.868,84.76 86.35,74.666 84.657,63.89C83.44,55.726 77.206,49.165 69.071,47.503C60.358,45.785 52.366,41.468 46.153,35.123L21.037,9.651C19.968,8.582 20.028,6.831 21.097,5.762C22.225,4.663 23.947,4.693 24.986,5.792L46.272,27.375C52.655,33.906 60.998,38.3 70.022,39.903C81.778,42.04 90.803,51.48 92.347,63.326C94.306,78.288 83.708,92.033 68.745,94.022C53.724,95.952 40.037,85.382 38.018,70.42C36.86,61.306 32.852,52.786 26.677,46.046L16.376,34.915Z" style="fill:rgb(48,187,250);fill-rule:nonzero;"/>
                <path d="M79.373,66.858C79.373,58.991 73.02,52.668 65.183,52.668C57.346,52.668 50.992,58.991 50.992,66.858C50.992,74.695 57.346,81.078 65.183,81.078C73.02,81.078 79.373,74.695 79.373,66.858Z" style="fill:rgb(48,187,250);fill-rule:nonzero;"/>
            </g>
        </g>
    </g>
</svg>
